<svg width="315" height="15" viewBox="0 0 315 15" fill="none" xmlns="http://www.w3.org/2000/svg">
<line y1="7.5" x2="130" y2="7.5" stroke="#D3D3D3"/>
<line x1="185" y1="7.5" x2="315" y2="7.5" stroke="#D3D3D3"/>
<path d="M157.659 7.63636C157.659 8.5767 157.483 9.3821 157.131 10.0526C156.781 10.7202 156.304 11.2315 155.699 11.5866C155.097 11.9418 154.413 12.1193 153.649 12.1193C152.885 12.1193 152.2 11.9418 151.595 11.5866C150.993 11.2287 150.516 10.7159 150.163 10.0483C149.814 9.37784 149.639 8.57386 149.639 7.63636C149.639 6.69602 149.814 5.89205 150.163 5.22443C150.516 4.55398 150.993 4.04119 151.595 3.68608C152.2 3.33097 152.885 3.15341 153.649 3.15341C154.413 3.15341 155.097 3.33097 155.699 3.68608C156.304 4.04119 156.781 4.55398 157.131 5.22443C157.483 5.89205 157.659 6.69602 157.659 7.63636ZM156.07 7.63636C156.07 6.97443 155.966 6.41619 155.759 5.96165C155.554 5.50426 155.27 5.15909 154.906 4.92614C154.543 4.69034 154.124 4.57244 153.649 4.57244C153.175 4.57244 152.756 4.69034 152.392 4.92614C152.028 5.15909 151.743 5.50426 151.536 5.96165C151.331 6.41619 151.229 6.97443 151.229 7.63636C151.229 8.2983 151.331 8.85795 151.536 9.31534C151.743 9.76989 152.028 10.1151 152.392 10.3509C152.756 10.5838 153.175 10.7003 153.649 10.7003C154.124 10.7003 154.543 10.5838 154.906 10.3509C155.27 10.1151 155.554 9.76989 155.759 9.31534C155.966 8.85795 156.07 8.2983 156.07 7.63636ZM159.154 12V3.27273H162.426C163.097 3.27273 163.659 3.3892 164.114 3.62216C164.571 3.85511 164.917 4.18182 165.15 4.60227C165.385 5.01989 165.503 5.5071 165.503 6.06392C165.503 6.62358 165.384 7.10937 165.145 7.52131C164.909 7.9304 164.561 8.24716 164.101 8.47159C163.641 8.69318 163.076 8.80398 162.405 8.80398H160.074V7.49148H162.192C162.584 7.49148 162.905 7.4375 163.155 7.32955C163.405 7.21875 163.59 7.05824 163.709 6.84801C163.831 6.63494 163.892 6.37358 163.892 6.06392C163.892 5.75426 163.831 5.49006 163.709 5.27131C163.587 5.04972 163.401 4.8821 163.151 4.76847C162.901 4.65199 162.578 4.59375 162.184 4.59375H160.735V12H159.154ZM163.662 8.04545L165.823 12H164.059L161.936 8.04545H163.662Z" fill="#6D6D6D"/>
</svg>
